<?xml version="1.0" encoding="UTF-8"?><svg xmlns="http://www.w3.org/2000/svg" xmlns:xlink="http://www.w3.org/1999/xlink" data-name="Layer 1" height="499.9" preserveAspectRatio="xMidYMid meet" version="1.0" viewBox="-18.8 -22.6 518.5 499.9" width="518.5" zoomAndPan="magnify"><g id="change1_1"><path d="M453.8,238.57c0,118.87-96.36,215.23-215.23,215.23S23.33,357.44,23.33,238.57,119.69,23.33,238.57,23.33,453.8,119.69,453.8,238.57Z" fill="#435bd8"/></g><g id="change2_1"><path d="M238.57,477.13A238.57,238.57,0,0,1,69.87,69.87,238.57,238.57,0,0,1,407.26,407.26,237,237,0,0,1,238.57,477.13Z" fill="#fff"/></g><g id="change1_2"><path d="M453.8,238.57c0,118.87-96.36,215.23-215.23,215.23S23.33,357.44,23.33,238.57,119.69,23.33,238.57,23.33,453.8,119.69,453.8,238.57Z" fill="#435bd8"/></g><g id="change3_1"><path d="M172.49,90a159.6,159.6,0,0,0-46.42,41.25,5.28,5.28,0,0,1-8.42-6.38,170.23,170.23,0,0,1,49.5-44A5.28,5.28,0,0,1,172.49,90Zm10.8,28.76a129.68,129.68,0,0,0-29.93,26.59,5.28,5.28,0,1,1-8.15-6.71,140.05,140.05,0,0,1,32.37-28.76,5.28,5.28,0,0,1,5.71,8.88Zm134,253.74a159.83,159.83,0,0,0,50.2-36.55,5.28,5.28,0,1,1,7.76,7.16,170.24,170.24,0,0,1-53.53,39,5.28,5.28,0,1,1-4.43-9.58Zm-8-29.68a129.33,129.33,0,0,0,32.36-23.56,5.28,5.28,0,1,1,7.46,7.47,140.2,140.2,0,0,1-35,25.49,5.28,5.28,0,0,1-4.82-9.4Z" fill="#e397c1"/></g><g id="change4_1"><path d="M169.81,80.12A5.28,5.28,0,0,1,172.49,90a159.6,159.6,0,0,0-46.42,41.25,5.28,5.28,0,0,1-8.42-6.38,170.23,170.23,0,0,1,49.5-44,5.28,5.28,0,0,1,2.66-.73M180.43,109a5.28,5.28,0,0,1,2.86,9.72,129.68,129.68,0,0,0-29.93,26.59,5.28,5.28,0,1,1-8.15-6.71,140.05,140.05,0,0,1,32.37-28.76,5.22,5.22,0,0,1,2.85-.84m165,208.68a5.27,5.27,0,0,1,3.73,9,140.2,140.2,0,0,1-35,25.49,5.29,5.29,0,0,1-7.11-2.29,5.29,5.29,0,0,1,2.29-7.11,129.33,129.33,0,0,0,32.36-23.56,5.25,5.25,0,0,1,3.73-1.54m25.95,16.53a5.28,5.28,0,0,1,3.88,8.86,170.24,170.24,0,0,1-53.53,39,5.28,5.28,0,1,1-4.43-9.58,159.83,159.83,0,0,0,50.2-36.55,5.26,5.26,0,0,1,3.88-1.7M169.81,75.12h0a10.2,10.2,0,0,0-5.19,1.42,174,174,0,0,0-51,45.28,10.27,10.27,0,0,0,8.19,16.48,10.33,10.33,0,0,0,8.2-4.07,153.68,153.68,0,0,1,45-40,10.28,10.28,0,0,0-5.21-19.15ZM180.43,104h0a10.31,10.31,0,0,0-5.55,1.63,144.73,144.73,0,0,0-33.53,29.79,10.28,10.28,0,1,0,15.87,13.07A124.31,124.31,0,0,1,186,122.93,10.28,10.28,0,0,0,180.43,104Zm165,208.68h0a10.2,10.2,0,0,0-7.26,3,124.33,124.33,0,0,1-31.11,22.65,10.28,10.28,0,0,0,9.38,18.3,144.76,144.76,0,0,0,36.26-26.4,10.28,10.28,0,0,0-7.26-17.55Zm25.94,16.53h0a10.27,10.27,0,0,0-7.55,3.31,153.67,153.67,0,0,1-48.63,35.4,10.28,10.28,0,1,0,8.63,18.66,174,174,0,0,0,55.1-40.12,10.27,10.27,0,0,0-7.55-17.25Z" fill="inherit"/></g><path d="M303.54,127.05c-.39,0-.77,0-1.16,0,.39,0,.78,0,1.17,0Z" fill="none"/><path d="M135.57,163.36l-.44,0c.21,0,.42,0,.64,0Z" fill="none"/><path d="M112.6,194.27a120.24,120.24,0,0,1,4.26-11.71A120.24,120.24,0,0,0,112.6,194.27Z" fill="none"/><path d="M182,378.37l1.14,0-1.3,0Z" fill="none"/><path d="M349.65,245h0Z" fill="none"/><path d="M344.81,176.54l-.64,0,.66,0Z" fill="none"/><g id="change5_1"><path d="M137,421.68c-1.61,1.49-3.13,2.86-4.57,4.17a216.32,216.32,0,0,1-83.68-85.71c27.18-26.54,48.62-46,54.34-54.45-1.37-13.29-.6-41.3,1-51.16v-.13l0-.09v-.05c0-.06,0-.13,0-.22V234c0-.09,0-.18,0-.28v-.12c0-.11,0-.22,0-.34l0-.16c0-.13,0-.26.05-.41l0-.19.06-.46,0-.21c0-.17.05-.34.08-.52l0-.26.09-.56a2.7,2.7,0,0,1,0-.28q0-.32.09-.66l0-.24c0-.24.07-.49.11-.74a2.34,2.34,0,0,0,0-.26c0-.27.09-.55.13-.84l0-.21.15-1,0-.18c.06-.35.11-.7.17-1.07l0-.13c.06-.38.13-.78.2-1.18v-.08c.28-1.62.6-3.38,1-5.24.4-2.13.86-4.38,1.37-6.73l0-.13.33-1.52,0-.18c.11-.49.23-1,.34-1.49l0-.21c.12-.49.23-1,.35-1.48l.06-.25c.12-.48.23-1,.35-1.45l.07-.28c.12-.48.24-1,.37-1.44,0-.1,0-.2.07-.3.13-.48.25-1,.38-1.44l.08-.29.39-1.46c0-.09.06-.19.08-.28l.42-1.5a1.55,1.55,0,0,0,.07-.23c.15-.52.3-1,.46-1.56a1.09,1.09,0,0,1,0-.17c.16-.55.33-1.1.5-1.65l0-.07a120.24,120.24,0,0,1,4.26-11.71l.06-.13c.21-.47.41-.93.62-1.39l.12-.25.57-1.24c0-.11.11-.21.16-.31.18-.39.37-.76.56-1.14l.18-.35.55-1.05.21-.37c.18-.33.36-.66.55-1l.22-.38.55-.92.24-.38c.19-.29.37-.58.56-.86l.25-.38.57-.81.26-.36c.19-.26.39-.51.58-.76l.27-.34.6-.73.27-.31.63-.68.26-.28c.22-.22.44-.44.67-.65l.24-.23c.24-.22.48-.43.73-.63l.2-.17c.28-.23.57-.45.86-.65l.09-.07a15.16,15.16,0,0,1,2-1.19l.14-.06c.29-.14.58-.26.87-.38l.31-.1q.36-.14.72-.24l.4-.1c.21-.05.43-.11.65-.15l.45-.06.63-.08.48,0c.21,0,.42,0,.64,0h.38q.34,0,.69.06l.41.05c.24,0,.49.08.74.14l.35.07c.37.09.74.19,1.12.31,16.62,5.53,15.82,37,13.83,60.27a5.68,5.68,0,0,0,0,1c0,.07,0,.13,0,.19a6.51,6.51,0,0,0,.17.9.88.88,0,0,0,.05.15,5.84,5.84,0,0,0,.29.77.3.3,0,0,1,0,.08,4.83,4.83,0,0,0,.45.72.71.71,0,0,0,.1.14,5.41,5.41,0,0,0,.55.62l.09.08a7,7,0,0,0,.6.48l.1.07a6.3,6.3,0,0,0,.72.4l.15.07a4.59,4.59,0,0,0,.78.29l.05,0a7.2,7.2,0,0,0,.78.16l.16,0a5.32,5.32,0,0,0,.69,0h.11l.25,0a4.39,4.39,0,0,0,.61-.07l.27-.05q.31-.07.63-.18l.2-.07a5.62,5.62,0,0,0,.78-.38l.17-.12a4.3,4.3,0,0,0,.56-.42l.23-.2c.16-.16.31-.32.46-.5l.18-.23a5.84,5.84,0,0,0,.55-.87L211.78,135l0-.06,0-.06a1.2,1.2,0,0,1,.06-.17l0-.1c0-.07.06-.16.09-.25s0-.11.07-.17l.11-.31a1.8,1.8,0,0,0,.08-.21c.05-.12.11-.26.16-.4l.09-.23c.07-.17.15-.35.22-.53a1.67,1.67,0,0,0,.08-.2l.36-.82,0-.08.37-.81.13-.28c.11-.22.21-.44.32-.67l.18-.36.33-.66.2-.39c.12-.23.24-.46.37-.69l.21-.39.42-.76.21-.35c.18-.31.37-.63.57-1l.1-.18.74-1.15.15-.21c.2-.31.41-.61.63-.91l.27-.37c.18-.25.37-.51.56-.75s.21-.28.32-.41l.57-.7.34-.41.61-.68c.12-.13.23-.26.35-.38s.46-.48.7-.71l.31-.3c.32-.32.66-.62,1-.91l.05-.05c.36-.31.73-.6,1.11-.88l.33-.23c.27-.2.55-.39.83-.58l.43-.26c.26-.16.51-.31.78-.45l.48-.25c.26-.13.52-.26.79-.37l.5-.22q.42-.16.84-.3l.5-.17q.48-.14,1-.24l.42-.1c.47-.09.95-.16,1.43-.21h.16c.44,0,.9,0,1.36,0h.19c.48,0,1,0,1.46.1l.17,0a14.48,14.48,0,0,1,1.53.27l.14,0c.54.12,1.08.28,1.63.46l.08,0c.58.2,1.16.43,1.75.69,18.68,8.39,3.72,46.17-24,108.65a1.23,1.23,0,0,0-.1.41v.1a1.54,1.54,0,0,0,0,.31s0,0,0,.06a1.09,1.09,0,0,0,.18.31l.06.06a1.24,1.24,0,0,0,.22.18l.07.05a1.33,1.33,0,0,0,.33.13H218l.2,0h.18a1.06,1.06,0,0,0,.34-.12l.06,0a1.22,1.22,0,0,0,.32-.29l65.68-86.8,0,0,0,0,.09-.1,0-.05.19-.22.26-.29.09-.09.24-.26.11-.12.39-.41h0l.45-.44.14-.14.39-.37.15-.14c.19-.18.38-.36.59-.54h0l.62-.53.19-.17.52-.42.2-.17.75-.58h0l.77-.56.24-.17.63-.42.24-.16c.29-.19.58-.38.88-.56l0,0,.87-.5.28-.15.72-.37.28-.14,1-.46.06,0,1-.38.31-.11.79-.26.31-.1c.37-.1.73-.2,1.1-.28l.08,0c.34-.08.69-.14,1-.2l.35,0c.28,0,.56-.07.85-.09a1.84,1.84,0,0,1,.33,0c.39,0,.78,0,1.17,0l.73,0,.6,0,.74.09c.2,0,.4,0,.6.08s.53.11.79.17l.58.13c.27.07.55.17.82.26s.37.1.55.17.58.24.87.36.35.13.52.21.61.32.92.48l.48.25c.35.2.7.43,1.05.66l.36.23c.47.32.94.68,1.41,1.06,14.39,11.7,2.1,36.09-56.81,115.06a1.4,1.4,0,0,0-.19.39.6.6,0,0,0,0,.12.9.9,0,0,0,0,.28s0,.08,0,.12a1,1,0,0,0,.1.29s0,0,0,0a1.28,1.28,0,0,0,.23.29l.08.06a1.07,1.07,0,0,0,.22.15l.11.05a1.4,1.4,0,0,0,.28.06h.11a1,1,0,0,0,.24,0,.58.58,0,0,0,.14,0,1.16,1.16,0,0,0,.4-.25l69.12-64.59a24.77,24.77,0,0,1,12-6.32l1-.17.29,0c.25,0,.49-.07.74-.09s.24,0,.37,0l.69-.06h.42l.66,0h.1l.89,0,.31,0,.74.07.3,0,1,.15.1,0c.31.06.61.13.92.21l.32.09.74.22.31.1q.51.18,1,.39l.07,0c.32.14.63.29.95.45l.31.16c.25.13.5.28.74.42l.3.19c.34.21.67.43,1,.67l0,0c.32.24.64.49.95.75l.3.26c.24.21.48.42.71.65a3.83,3.83,0,0,1,.29.28c.32.32.64.65.95,1,10.73,12.15,1.77,28.16-74.81,95.21a1.23,1.23,0,0,0-.27.34s0,.09-.05.13a1.17,1.17,0,0,0-.07.25v.14a1.94,1.94,0,0,0,0,.24.74.74,0,0,0,0,.14,2.4,2.4,0,0,0,.11.23l.06.1a1.28,1.28,0,0,0,.26.26h0a1,1,0,0,0,.33.17l.12,0a1.08,1.08,0,0,0,.19,0l.09,0h.1a1.13,1.13,0,0,0,.4-.14l56.56-32.46,0,0,0,0,.07-.05.07,0,.12-.07.09-.06.16-.09L342,247l.18-.1.16-.08.22-.11.19-.09.25-.11.21-.1.28-.12.24-.09.32-.13.25-.09.37-.12.25-.08.46-.14.2-.06.71-.17.09,0,.66-.13.26,0,.53-.07.32,0,.5,0,.35,0h1.31l.48,0,.35,0,.53.07.33.05c.23,0,.46.08.7.13l.17,0c.29.06.59.14.89.23l.29.09.61.21.36.14.56.23.38.19.54.26.41.23.53.31.41.26c.18.11.35.23.53.36s.27.19.41.3l.54.41.4.34c.19.15.37.32.55.48l.4.37q.29.27.57.57l.37.38c.21.22.42.47.62.71l.31.35q.46.55.93,1.17c6.59,8.8-2.44,19.61-24.6,34a527.72,527.72,0,0,0-76.07,59.58c-.52.5-1.07,1-1.63,1.49l-.5.42c-.41.36-.83.71-1.27,1.07-.26.22-.55.44-.83.66l-1.05.83-.94.69-1,.78c-.33.24-.68.48-1,.71s-.71.51-1.08.76l-1,.66-1.19.79-1,.65-1.25.78-1.11.66-1.26.75-1.15.65-1.3.74-1.2.64-1.32.72-1.25.64-1.33.69-1.3.64-1.34.66-1.31.61-1.39.65-1.25.56-1.48.67-1.28.54-1.5.64-1.33.55-1.47.59c-.46.19-.93.36-1.39.54l-1.43.56-1.42.52-1.43.52-1.38.49-1.47.5-1.38.46-1.48.48-1.39.43-1.46.45-1.37.39-1.47.43-1.34.35-1.49.4-1.33.33-1.47.35-1.34.3-1.43.32-1.31.26-1.42.28-1.28.22-1.41.25-1.27.18-1.37.2-1.25.15-1.33.16-1.21.11-1.3.11-1.19.07-1.26.06-1.15,0-1.3,0q-3.76,3.76-7.29,7.26-2.36,2.34-4.61,4.55l-2.23,2.19c-2.2,2.17-4.33,4.24-6.39,6.24-4.1,4-7.92,7.65-11.46,11l-5.1,4.82L143.18,416l-3.09,2.87-1.47,1.37Z" fill="#f6cd46"/></g><g id="change4_2"><path d="M364.68,252.07c-4-5.57-10.67-9.63-17.69-8.34-2.36-1.28-57.17,32-60.05,33.13,65.29-60.14,93-80.21,66.35-99.84a18.58,18.58,0,0,0-9-2c-14.52-2.93-72.09,61.88-83,69.13,60-82.1,77.52-109.14,43.33-118.6a20.93,20.93,0,0,0-11.36,2.85c-7.36.31-68.1,86.92-73.57,92.4C247.74,156.26,269,108.43,229,112c-4.91,1.6-8.79,5.33-11.78,9.43-3.28,4.86-50,97.47-54.44,105.32a4.13,4.13,0,0,1-3.67,2.29,4.53,4.53,0,0,1-.52,0l-.17,1.49.06-1.51a4.16,4.16,0,0,1-3.65-3.62l-1.49.16,1.48-.3c2.18-28,3.4-69.28-25-62-3.81,1.89-6.73,5.27-9.06,8.76-11.05,18.11-14.72,40.57-18,61.38l1.49.19-1.5-.08c-1.68,10.25-2.53,37.62-1.19,51.82-7.09,9.9-38.22,38.22-53.84,53.77l2.09,2.15c16-16,48-44.8,54.84-55.13a249.29,249.29,0,0,1,8.81-89.49l-1.43-.43,1.48.26a125.43,125.43,0,0,1,4.73-13.26l-1.38-.6,1.44.46c3.66-8,9.9-20.83,20.68-17.58,16.08,5.25,14.42,37.58,12.83,60.21.4,5.15,6.87,8.09,11.09,5.21,8.2-9.62,50.55-98.8,56.71-107.71,3.38-4.7,8.4-9.11,14.5-9l0-1.5h0l.15,1.51q.67,0,1.32.09l.18-1.49,0,1.51c29.34,5.56.51,51.28-19.57,111a2.68,2.68,0,0,0,3.21.53c2-1.39,65.51-86.93,67.39-88.5l-1.09-1,1.19.92c4.1-4.22,9.35-7.94,15.38-8.52,33.76,4.9,13.91,36.17-45.7,116.82a2.69,2.69,0,0,0,1.83,4.24c12.79-5.19,71.05-74.44,86.4-71.63,7.54-.28,16.16,6.7,15.6,14.36-.15,12.1-23.75,36.69-78.59,85.22a2.69,2.69,0,0,0,1.87,3.85,2.87,2.87,0,0,0,1.81-.31c.32-.21,56.68-32.5,56.95-32.7l-.75-1.3.85,1.24a23.86,23.86,0,0,1,3.25-1.33l-.32-1.47L346,247a13.28,13.28,0,0,1,8.49.44c20.48,11.55,5,23.75-16.4,38.27-30.55,19.47-56.52,41.42-81.45,64.12a106.73,106.73,0,0,1-11.5,7.53c-19.55,10.68-41.38,19-63.87,19.5-16.37,16.36-32.86,32.48-49.82,47.87l2,2.22c16.69-15.14,32.93-31,49.06-47.1C205.07,379,227,370.75,246.59,360a97.42,97.42,0,0,0,15.26-10.53,538,538,0,0,1,77.85-61.21C359.51,273.89,372.16,266.62,364.68,252.07Zm-106.2-5.35h0l0,0Zm0,0a.3.3,0,0,1,.1,0l.06.22-.07.09Zm.17.51,0,0h0Zm.09.3,0-.11.17.7Z" fill="inherit"/></g><g id="change4_3"><path d="M370.85,261.64c-1.54,8.7-10.48,17.93-29,29.95a524.06,524.06,0,0,0-75.28,59c-8.56,8.13-22.82,16.51-39.13,23-15.56,6.18-31.18,9.88-43.28,10.28-20.57,20.53-35.75,34.91-46.65,44.83-1.71-.92-3.42-1.85-5.1-2.81,1.44-1.31,3-2.68,4.57-4.17l1.61-1.48,1.47-1.37,3.09-2.87,1.61-1.51,5.1-4.82c3.54-3.37,7.36-7,11.46-11,2.06-2,4.19-4.07,6.39-6.24l2.23-2.19q2.25-2.21,4.61-4.55,3.53-3.5,7.29-7.26H182l1.14,0,1.15,0,1.26-.06,1.19-.07,1.3-.11,1.21-.11,1.33-.16,1.25-.15,1.37-.2,1.27-.18,1.41-.25,1.28-.22,1.42-.28,1.31-.26,1.43-.32,1.34-.3,1.47-.35,1.33-.33,1.49-.4,1.34-.35,1.47-.43,1.37-.39,1.46-.45,1.39-.43,1.48-.48,1.38-.46,1.47-.5,1.38-.49,1.43-.52,1.42-.52L224,369c.46-.18.93-.35,1.39-.54l1.47-.59,1.33-.55,1.5-.64,1.28-.54,1.48-.67,1.25-.56,1.39-.65,1.31-.61,1.34-.66,1.3-.64,1.33-.69,1.25-.64,1.32-.72,1.2-.64,1.3-.74,1.15-.65,1.26-.75,1.11-.66,1.25-.78,1-.65,1.19-.79,1-.66c.37-.25.72-.51,1.08-.76s.69-.47,1-.71l1-.78.94-.69,1.05-.83c.28-.22.57-.44.83-.66.44-.36.86-.71,1.27-1.07l.5-.42c.56-.5,1.11-1,1.63-1.49A527.72,527.72,0,0,1,338.88,287c22.16-14.4,31.19-25.21,24.6-34q-.47-.61-.93-1.17l-.31-.35c-.2-.24-.41-.49-.62-.71l-.37-.38q-.28-.3-.57-.57l-.4-.37c-.18-.16-.36-.33-.55-.48l-.4-.34-.54-.41c-.14-.11-.27-.21-.41-.3s-.35-.25-.53-.36l-.41-.26-.53-.31-.41-.23-.54-.26-.38-.19-.56-.23-.36-.14-.61-.21-.29-.09c-.3-.09-.6-.17-.89-.23l-.17,0c-.24-.05-.47-.1-.7-.13l-.33-.05-.53-.07-.35,0-.48,0H349l-.35,0-.5,0-.32,0-.53.07-.26,0-.66.13-.09,0-.71.17-.2.06-.46.14-.25.08-.37.12-.25.09-.32.13-.24.09-.28.12-.21.1-.25.11-.19.09-.22.11-.16.08-.18.1-.13.07-.16.09-.09.06-.12.07-.07,0-.07.05,0,0,0,0-56.56,32.46a1.13,1.13,0,0,1-.4.14h-.1l-.09,0a1.08,1.08,0,0,1-.19,0l-.12,0a1,1,0,0,1-.33-.17h0a1.28,1.28,0,0,1-.26-.26l-.06-.1a2.4,2.4,0,0,1-.11-.23.74.74,0,0,1,0-.14,1.94,1.94,0,0,1,0-.24v-.14a1.17,1.17,0,0,1,.07-.25s0-.09.05-.13a1.23,1.23,0,0,1,.27-.34c76.58-67.05,85.54-83.06,74.81-95.21-.31-.36-.63-.69-.95-1a3.83,3.83,0,0,0-.29-.28c-.23-.23-.47-.44-.71-.65l-.3-.26c-.31-.26-.63-.51-.95-.75l0,0c-.34-.24-.67-.46-1-.67l-.3-.19c-.24-.14-.49-.29-.74-.42l-.31-.16c-.32-.16-.63-.31-.95-.45l-.07,0q-.51-.21-1-.39l-.31-.1-.74-.22-.32-.09c-.31-.08-.61-.15-.92-.21l-.1,0-1-.15-.3,0-.74-.07-.31,0-.89,0h-.12l-.64,0h-.42l-.69.06c-.13,0-.25,0-.37,0s-.49.06-.74.09l-.29,0-1,.17a24.77,24.77,0,0,0-12,6.32l-69.12,64.59a1.16,1.16,0,0,1-.4.25.58.58,0,0,1-.14,0,1,1,0,0,1-.24,0h-.11a1.4,1.4,0,0,1-.28-.06l-.11-.05a1.07,1.07,0,0,1-.22-.15l-.08-.06a1.28,1.28,0,0,1-.23-.29s0,0,0,0a1,1,0,0,1-.1-.29s0-.08,0-.12a.9.9,0,0,1,0-.28.6.6,0,0,1,0-.12,1.4,1.4,0,0,1,.19-.39c58.91-79,71.2-103.36,56.81-115.06-.47-.38-.94-.74-1.41-1.06l-.36-.23c-.35-.23-.7-.46-1.05-.66l-.48-.25c-.31-.16-.61-.33-.92-.48s-.34-.14-.52-.21-.58-.26-.87-.36-.36-.11-.55-.17-.55-.19-.82-.26l-.58-.13c-.26-.06-.53-.13-.79-.17s-.4,0-.6-.08l-.74-.09-.6,0-.73,0h0c-.39,0-.77,0-1.16,0a1.84,1.84,0,0,0-.33,0c-.29,0-.57.05-.85.09l-.35,0c-.35.06-.7.12-1,.2l-.08,0c-.37.08-.73.18-1.1.28l-.31.1-.79.26-.31.11-1,.38-.06,0-1,.46-.28.14-.72.37-.28.15-.87.5,0,0c-.3.18-.59.37-.88.56l-.24.16-.63.42-.24.17-.77.56h0l-.75.58-.2.17-.52.42-.19.17-.62.53h0c-.21.18-.4.36-.59.54l-.15.14-.39.37-.14.14-.45.44h0l-.39.41-.11.12-.24.26-.09.09-.26.29-.19.22,0,.05-.09.1,0,0,0,0-65.68,86.8a1.22,1.22,0,0,1-.32.29l-.06,0a1.06,1.06,0,0,1-.34.12h-.18l-.2,0h-.06a1.33,1.33,0,0,1-.33-.13l-.07-.05a1.24,1.24,0,0,1-.22-.18l-.06-.06a1.09,1.09,0,0,1-.18-.31s0,0,0-.06a1.54,1.54,0,0,1,0-.31v-.1a1.23,1.23,0,0,1,.1-.41c27.74-62.48,42.7-100.26,24-108.65-.59-.26-1.17-.49-1.75-.69l-.08,0c-.55-.18-1.09-.34-1.63-.46l-.14,0a14.48,14.48,0,0,0-1.53-.27l-.17,0c-.5-.06-1-.09-1.46-.1H234c-.4,0-.8,0-1.19,0h-.16c-.48,0-1,.12-1.43.21l-.42.1q-.48.1-1,.24l-.5.17q-.42.14-.84.3l-.5.22c-.27.11-.53.24-.79.37l-.48.25c-.27.14-.52.29-.78.45l-.43.26c-.28.19-.56.38-.83.58l-.33.23c-.38.28-.75.57-1.11.88l-.05.05c-.34.29-.68.59-1,.91l-.31.3c-.24.23-.47.47-.7.71s-.23.25-.35.38l-.61.68-.34.41-.57.7c-.11.13-.22.27-.32.41s-.38.5-.56.75l-.27.37c-.22.3-.43.6-.63.91l-.15.21-.74,1.15-.1.18c-.2.32-.39.64-.57,1l-.21.35-.42.76-.21.39c-.13.23-.25.46-.37.69l-.2.39-.33.66-.18.36c-.11.23-.21.45-.32.67l-.13.28-.37.81,0,.08-.36.82a1.67,1.67,0,0,1-.08.2c-.07.18-.15.36-.22.53l-.09.23c0,.14-.11.28-.16.4a1.8,1.8,0,0,1-.08.21l-.11.31c0,.06,0,.12-.07.17s-.06.18-.09.25l0,.1a1.2,1.2,0,0,0-.06.17l0,.06,0,.06-47.71,92.4a5.84,5.84,0,0,1-.55.87l-.18.23c-.15.18-.3.34-.46.5l-.23.2a4.3,4.3,0,0,1-.56.42l-.17.12a5.62,5.62,0,0,1-.78.38l-.2.07q-.31.11-.63.18l-.27.05a4.39,4.39,0,0,1-.61.07l-.25,0h-.11a5.32,5.32,0,0,1-.69,0l-.16,0a7.2,7.2,0,0,1-.78-.16l-.05,0a4.59,4.59,0,0,1-.78-.29l-.15-.07a6.3,6.3,0,0,1-.72-.4l-.1-.07a7,7,0,0,1-.6-.48l-.09-.08a5.41,5.41,0,0,1-.55-.62.71.71,0,0,1-.1-.14,4.83,4.83,0,0,1-.45-.72.3.3,0,0,0,0-.08,5.84,5.84,0,0,1-.29-.77.88.88,0,0,1-.05-.15,6.51,6.51,0,0,1-.17-.9c0-.06,0-.12,0-.19a5.68,5.68,0,0,1,0-1c2-23.28,2.79-54.74-13.83-60.27-.38-.12-.75-.22-1.12-.31l-.35-.07c-.25-.06-.5-.1-.74-.14l-.41-.05q-.34,0-.69-.06h-.58l-.44,0-.48,0-.63.08-.45.06c-.22,0-.44.1-.65.15l-.4.1q-.36.11-.72.24l-.31.1c-.29.12-.58.24-.87.38l-.14.06a15.16,15.16,0,0,0-2,1.19l-.09.07c-.29.2-.58.42-.86.65l-.2.17c-.25.2-.49.41-.73.63l-.24.23c-.23.21-.45.43-.67.65l-.26.28-.63.68-.27.31-.6.73-.27.34c-.19.25-.39.5-.58.76l-.26.36-.57.81-.25.38c-.19.28-.37.57-.56.86l-.24.38-.55.92-.22.38c-.19.32-.37.65-.55,1l-.21.37-.55,1.05-.18.35c-.19.38-.38.75-.56,1.14,0,.1-.11.2-.16.31l-.57,1.24-.12.25c-.21.46-.41.92-.62,1.39l-.06.13a120.24,120.24,0,0,0-4.26,11.71l0,.07c-.17.55-.34,1.1-.5,1.65a1.09,1.09,0,0,0,0,.17c-.16.52-.31,1-.46,1.56a1.55,1.55,0,0,1-.07.23l-.42,1.5c0,.09,0,.19-.08.28l-.39,1.46-.08.29c-.13.48-.25,1-.38,1.44,0,.1-.05.2-.07.3-.13.48-.25,1-.37,1.44l-.07.28c-.12.49-.23,1-.35,1.45l-.06.25c-.12.5-.23,1-.35,1.48l0,.21c-.11.5-.23,1-.34,1.49l0,.18-.33,1.52,0,.13c-.51,2.35-1,4.6-1.37,6.73-.35,1.86-.67,3.62-1,5.24v.08c-.07.4-.14.8-.2,1.18l0,.13c-.06.37-.11.72-.17,1.07l0,.18-.15,1,0,.21c0,.29-.09.57-.13.84a2.34,2.34,0,0,1,0,.26c0,.25-.07.5-.11.74l0,.24q0,.34-.09.66a2.7,2.7,0,0,0,0,.28l-.09.56,0,.26c0,.18,0,.35-.08.52l0,.21-.06.46,0,.19c0,.15,0,.28-.05.41l0,.16c0,.12,0,.23,0,.34v.12c0,.1,0,.19,0,.28V234c0,.09,0,.16,0,.22v.05l0,.09v.13c-1.63,9.86-2.4,37.87-1,51.16-5.72,8.48-27.16,27.91-54.34,54.45q-1.35-2.53-2.64-5.11c7.07-6.89,13.75-13.31,19.94-19.25,14.71-14.12,26.59-25.52,31.38-31.66-1.17-14.57-.34-40.61,1.24-50.37a271,271,0,0,1,7.25-36.29c3-10.81,6.49-19.5,10.31-25.83,5.52-9.14,12-13.77,19.32-13.77h0a17.58,17.58,0,0,1,5.62.94c20,6.65,19.91,38.74,17.58,65.95a.36.36,0,0,0,0,.15.53.53,0,0,0,.3.09h0a.42.42,0,0,0,.08-.13l47.53-92.05a58.6,58.6,0,0,1,6-12c5.9-8.93,13.24-13.64,21.23-13.64a22.8,22.8,0,0,1,9.38,2.12c15.39,6.91,12.2,26.4,8.45,40.47-3,11.33-8.06,24.92-15.26,42.14L280.34,134l.06-.08.06-.07c.41-.51,10.12-12.27,23.08-12.27A22.63,22.63,0,0,1,318,127c12.56,10.21,6.89,26.22.54,39-5.56,11.22-14.64,25.68-29.41,46.59l35.67-33.34a30.22,30.22,0,0,1,14.76-7.7,27.55,27.55,0,0,1,5.21-.52,22.87,22.87,0,0,1,17.52,8.09c3.72,4.21,5.37,8.7,5.05,13.72-.79,12.17-13.51,28.54-49.43,61.6l20.47-11.75a21.84,21.84,0,0,1,11.23-3.19c4.84,0,11.94,1.77,18.23,10.16A15.16,15.16,0,0,1,370.85,261.64Z" fill="inherit"/></g></svg>